# xmcd
#
# Track frame offsets: 
#        150
#        13448
#        28682
#        45860
#        59413
#        74124
#        91453
#        103799
#        124501
#        139114
#        155711
#
# Disc length: 2350 seconds
#
# Revision: 0
# Processed by: cddbd v1.5.2PL0 Copyright (c) Steve Scherf et al.
# Submitted via: ExactAudioCopy v0.95b4
#
DISCID=9d092c0b
DTITLE=Justin Moore - Off The Beaten Path
DYEAR=2013
DGENRE=Country
TTITLE0=Old Back in the New School
TTITLE1=Lettin' the Night Roll
TTITLE2=Old Habits
TTITLE3=Point At You
TTITLE4=I'd Want it to be Yours
TTITLE5=This Kind of Town
TTITLE6=Country Radio
TTITLE7=That's How I Know You Love Me
TTITLE8=Off the Beaten Path
TTITLE9=One Dirt Road
TTITLE10=For Some Ol' Redneck Reason
EXTD=
EXTT0=
EXTT1=
EXTT2=
EXTT3=
EXTT4=
EXTT5=
EXTT6=
EXTT7=
EXTT8=
EXTT9=
EXTT10=
PLAYORDER=
